PathFileType	4	(X/Y/Z)	D:\Share\Shared_Data\Ergonomics\Sit To Stand Pertubation\S2\Perturbed.trc
DataRate	CameraRate	NumFrames	NumMarkers	Units	OrigDataRate	OrigDataStartFrame	OrigNumFrames	
100	100	19	18	m	100	14291	221
Frame#	Time	R_Toe			R_ASIS			R_Pelvis			V_Sacral			L_Pelvis			L_ASIS			Clavical			R_Acromium			L_Acromium			Sternum			Torso			R_Thigh_Med			R_Thigh_Lat			R_Thigh			R_Shank_Med			R_Shank_Lat			R_Shank			R_Heel			
		X1	Y1	Z1	X2	Y2	Z2	X3	Y3	Z3	X4	Y4	Z4	X5	Y5	Z5	X6	Y6	Z6	X7	Y7	Z7	X8	Y8	Z8	X9	Y9	Z9	X10	Y10	Z10	X11	Y11	Z11	X12	Y12	Z12	X13	Y13	Z13	X14	Y14	Z14	X15	Y15	Z15	X16	Y16	Z16	X17	Y17	Z17	X18	Y18	Z18	

14291	142.9	0.43372504	0.066006752	0.14539511	-0.041929062	0.64088068	0.11945294	-0.12128578	0.63868854	0.16158871	-0.25744931	0.5783703	0.013690328	-0.17027226	0.63190808	-0.17877794	-0.075954544	0.64608783	-0.14965041	-0.026160294	1.0314253	-0.012885886	-0.12032726	1.0559291	0.19159717	-0.12698564	1.0572754	-0.19925392	0.016124161	0.87233105	-0.0099216003	-0.01753587	0.98736426	-0.1283497	0.34957333	0.50731503	0.12900374	0.31536523	0.51343573	0.23178888	0.15950073	0.62262909	0.17393513	0.29720709	0.11139095	0.1075983	0.27634885	0.10093012	0.19904486	0.31167529	0.36059763	0.24235382	0.19644344	0.062431374	0.14617241
14292	142.91	0.43371475	0.066025208	0.14540239	-0.041990849	0.64081451	0.11953883	-0.12152747	0.6386615	0.16199577	-0.2576073	0.57840674	0.01374323	-0.17042056	0.63207367	-0.179422	-0.076105049	0.64591931	-0.14959763	-0.024041235	1.0308184	-0.012870197	-0.11796705	1.0558873	0.19159441	-0.12472768	1.0573169	-0.19920129	0.017097795	0.87136945	-0.0099657764	-0.01573251	0.98671313	-0.12834241	0.34931473	0.50733179	0.12932083	0.31506168	0.51340161	0.23207298	0.15927203	0.62260815	0.17417233	0.29709384	0.11135387	0.10764985	0.27632095	0.10090928	0.19909094	0.31143039	0.36057037	0.24255803	0.1964366	0.062415722	0.14618938
14293	142.92	0.4337048	0.066043533	0.14540973	-0.042053619	0.64073999	0.11962006	-0.12177911	0.63861957	0.16237349	-0.25774377	0.57844159	0.013777665	-0.17054015	0.63221606	-0.17987546	-0.076021721	0.64599438	-0.14952446	-0.021769844	1.030132	-0.012849754	-0.11542864	1.0558247	0.19159749	-0.12229549	1.0573271	-0.19913901	0.018138784	0.87031189	-0.010003166	-0.013805621	0.98597852	-0.12832062	0.34906894	0.50734824	0.12965381	0.31476627	0.51336884	0.23238089	0.15905016	0.62258759	0.17441533	0.29684814	0.11125791	0.10769558	0.27629364	0.10089021	0.19913863	0.31119348	0.36054071	0.2427683	0.19642963	0.062402077	0.14620337
14294	142.93	0.4336954	0.066061005	0.14541664	-0.042121613	0.64065173	0.11969237	-0.12202732	0.63856531	0.16268541	-0.25785925	0.57847339	0.013794907	-0.17063124	0.63233337	-0.18013808	-0.075759796	0.64625214	-0.14944077	-0.019348606	1.0293606	-0.012826047	-0.112713	1.0557362	0.19160762	-0.11968876	1.057298	-0.19907352	0.019279076	0.86917407	-0.010029172	-0.011753608	0.98515631	-0.12828578	0.34883408	0.50736499	0.1299973	0.31447974	0.51333502	0.23270662	0.1588353	0.62256549	0.17466573	0.29654266	0.11113657	0.10773823	0.27626736	0.10087244	0.19918633	0.31096664	0.36050876	0.24298654	0.19642316	0.062390541	0.14621477
14295	142.94	0.43368661	0.06607695	0.14542097	-0.042199707	0.64054358	0.11975328	-0.12225724	0.63850372	0.1629198	-0.25795615	0.57850134	0.013797744	-0.17069611	0.63242712	-0.18024213	-0.075389915	0.64661401	-0.14935692	-0.016778791	1.0285012	-0.012798801	-0.10982005	1.0556152	0.19162495	-0.11690669	1.0572211	-0.19900935	0.020532396	0.86796069	-0.010043096	-0.0095746975	0.98424213	-0.12824005	0.34860815	0.50738312	0.13034892	0.31420181	0.51329767	0.23304346	0.15862793	0.62254205	0.17492543	0.29624484	0.11102116	0.10778053	0.27624249	0.10085523	0.19923248	0.31075067	0.36047366	0.24321304	0.19641759	0.062381187	0.14622394
14296	142.95	0.43367807	0.066090881	0.1454183	-0.042290913	0.64041199	0.11980222	-0.12244884	0.63844379	0.16308351	-0.25803836	0.57852478	0.013790175	-0.17073825	0.63250031	-0.18023035	-0.074983185	0.64700104	-0.14928438	-0.014058361	1.0275515	-0.012765347	-0.10674852	1.0554547	0.19164944	-0.11394749	1.0570898	-0.19894838	0.021898832	0.86666925	-0.010046239	-0.007267951	0.98323145	-0.12818626	0.34839026	0.50740338	0.13070767	0.31393152	0.51325513	0.2333848	0.15842862	0.6225188	0.17519617	0.29599283	0.11092951	0.1078238	0.27621902	0.10083797	0.19927606	0.31054449	0.36043442	0.2434453	0.19641307	0.062373962	0.14623105
14297	142.96	0.43366916	0.066102936	0.14540395	-0.042393841	0.640258	0.11984035	-0.12258002	0.63839563	0.16319237	-0.25811118	0.57854321	0.013777011	-0.17076308	0.63255762	-0.18014435	-0.074594398	0.64735431	-0.14923375	-0.011182527	1.0265089	-0.012722414	-0.10349591	1.0552478	0.191681	-0.11080782	1.0568997	-0.19889032	0.023372751	0.86529395	-0.010040537	-0.0048316145	0.98212024	-0.12812772	0.34818085	0.50742627	0.13107195	0.31366815	0.51320685	0.23372513	0.15823766	0.62249731	0.17547881	0.29579916	0.11086747	0.10786825	0.27619662	0.1008204	0.1993165	0.31034558	0.36039059	0.24367943	0.19640955	0.062368584	0.14623647
14298	142.97	0.43365939	0.066114052	0.14537538	-0.042501884	0.6400885	0.11987016	-0.12263543	0.63836719	0.16326524	-0.25818048	0.57855701	0.013763271	-0.17077785	0.63260535	-0.18001903	-0.074251656	0.64764612	-0.14921056	-0.0081456842	1.0253704	-0.01266682	-0.10005846	1.0549869	0.19171947	-0.10748275	1.0566483	-0.19883249	0.02494771	0.86382825	-0.010027671	-0.0022605593	0.98090717	-0.12806541	0.34798071	0.50745218	0.1314388	0.31341086	0.5131543	0.23406073	0.15805466	0.62247998	0.17577315	0.29566125	0.11083346	0.10791344	0.27617511	0.10080253	0.19935382	0.31015082	0.3603428	0.24391248	0.19640698	0.062364666	0.14624075
14299	142.98	0.43364847	0.066125671	0.14533252	-0.042603046	0.63991516	0.11989429	-0.1226111	0.63836115	0.16331984	-0.2582518	0.57856775	0.013753269	-0.17079004	0.63265015	-0.17987985	-0.073957268	0.64787805	-0.14921454	-0.0049424672	1.0241329	-0.012595189	-0.096431458	1.054666	0.19176559	-0.10396554	1.056335	-0.19877127	0.026619286	0.86226636	-0.010008364	0.00045402455	0.97959381	-0.12799652	0.34778888	0.50748105	0.13180383	0.31315826	0.51309973	0.23438943	0.15787856	0.62246887	0.17607759	0.295569	0.11082203	0.10795879	0.27615402	0.10078476	0.199388	0.30995773	0.36029285	0.24414317	0.19640521	0.062361938	0.1462446
14300	142.99	0.43363559	0.066139206	0.14527571	-0.042679241	0.63975513	0.11991459	-0.12251393	0.63837616	0.1633703	-0.2583299	0.57857727	0.013749927	-0.17080624	0.63269824	-0.17974271	-0.073695343	0.64807037	-0.14924139	-0.0015676692	1.0227932	-0.012504707	-0.092609406	1.0542795	0.19182079	-0.10024745	1.0559596	-0.19870448	0.028386271	0.86060345	-0.0099823065	0.0033229485	0.97818207	-0.12791583	0.34760211	0.50751178	0.1321613	0.31290881	0.51304626	0.23470906	0.15770763	0.62246637	0.17638835	0.29551056	0.11082629	0.10800382	0.27613297	0.10076797	0.19941905	0.30976535	0.36024362	0.24437099	0.19640414	0.0623601	0.14624837
14301	143	0.43362009	0.066155968	0.14520474	-0.042707371	0.63962927	0.1199316	-0.12236063	0.63840778	0.16342589	-0.2584183	0.57858893	0.013754859	-0.1708315	0.63275537	-0.17961571	-0.073439796	0.64825391	-0.14928516	0.0019838148	1.0213456	-0.012394793	-0.088585815	1.0538221	0.19188644	-0.096317841	1.0555208	-0.1986319	0.030251255	0.85883563	-0.0099480448	0.0063570585	0.97667206	-0.12781898	0.34741599	0.50754297	0.13250359	0.31266089	0.51299628	0.23501591	0.15753963	0.62247369	0.17669904	0.2954747	0.1108395	0.10804824	0.27611172	0.10075313	0.19944693	0.30957355	0.36019754	0.24459398	0.19640347	0.062358803	0.14625218
14302	143.01	0.43360153	0.066177353	0.14511913	-0.042663773	0.63955731	0.11994516	-0.12217439	0.63845056	0.16349132	-0.25851901	0.57860596	0.013768815	-0.17086913	0.63282642	-0.17950146	-0.073160904	0.64846167	-0.1493398	0.0057164474	1.0197806	-0.012268942	-0.08435289	1.0532878	0.19196317	-0.09216452	1.0550167	-0.1985545	0.032220406	0.85695947	-0.0099027824	0.009565876	0.97506079	-0.12770446	0.34722617	0.50757324	0.13282187	0.31241345	0.51295105	0.23530438	0.15737218	0.62249091	0.17700037	0.29545224	0.11085606	0.10809158	0.27609006	0.10074061	0.19947191	0.30938248	0.36015601	0.24480692	0.19640279	0.062357632	0.14625641
14303	143.02	0.43357971	0.066204903	0.14501872	-0.042529926	0.63955194	0.11995551	-0.12197973	0.63850024	0.16356712	-0.25863324	0.57863208	0.0137919	-0.1709209	0.63291382	-0.17939894	-0.072832191	0.64872198	-0.14940005	0.0096343126	1.0180857	-0.012134555	-0.079901283	1.0526696	0.19205063	-0.087774269	1.0544431	-0.19847339	0.034301308	0.85497174	-0.0098429413	0.012956964	0.97334186	-0.12757417	0.34702948	0.50760144	0.13310771	0.31216568	0.51291156	0.23556728	0.15720312	0.62251599	0.17728076	0.29543567	0.11087172	0.10813332	0.27606802	0.1007298	0.19949484	0.30919165	0.3601192	0.24500117	0.19640157	0.062355759	0.14626157
14304	143.03	0.43355478	0.066240379	0.14490446	-0.04229818	0.63961279	0.11996379	-0.12179787	0.63855292	0.16364995	-0.25876117	0.57867004	0.013823639	-0.17098726	0.63301819	-0.17930467	-0.07243959	0.64905066	-0.14946164	0.013742808	1.016246	-0.011999825	-0.075220772	1.0519589	0.1921476	-0.083133881	1.0537949	-0.1983885	0.036500401	0.85286847	-0.0097648687	0.016535917	0.97150531	-0.12743204	0.3468233	0.50762634	0.1333539	0.31191669	0.51287762	0.23579697	0.15703059	0.62254462	0.17752802	0.29541858	0.11088327	0.10817303	0.2760455	0.10071915	0.19951723	0.30900064	0.36008734	0.24516734	0.19639902	0.062351665	0.14626843
14305	143.04	0.43352707	0.066285896	0.14478011	-0.041979538	0.63972131	0.11997141	-0.12164385	0.6386059	0.16373286	-0.25890298	0.57872168	0.013863237	-0.17106764	0.63313879	-0.1792139	-0.07199427	0.6494375	-0.14952071	0.01805064	1.0142485	-0.011869694	-0.070301018	1.0511473	0.19225201	-0.078231293	1.0530658	-0.19829796	0.038822422	0.85064502	-0.0096654062	0.020307127	0.96954004	-0.12728085	0.34660526	0.50764615	0.13355482	0.31166559	0.51284906	0.23598634	0.15685321	0.62257202	0.17773201	0.29539481	0.11088844	0.10821082	0.27602228	0.1007067	0.1995412	0.3088093	0.36006119	0.24529817	0.196394	0.062343117	0.14627771
14306	143.05	0.43349683	0.066344131	0.14465234	-0.04160804	0.63983929	0.11997866	-0.12152469	0.63865717	0.16380626	-0.2590589	0.57878833	0.013909862	-0.17115968	0.63327484	-0.17912164	-0.071540459	0.64983929	-0.14957344	0.022571049	1.0120836	-0.011743163	-0.065131935	1.0502256	0.19236209	-0.073056328	1.0522491	-0.1981994	0.041270493	0.84829541	-0.0095432367	0.024275475	0.9674364	-0.12712	0.34637289	0.50765884	0.13370551	0.31141122	0.51282501	0.23612935	0.15666968	0.6225946	0.17788702	0.29535803	0.11088574	0.10824728	0.27599759	0.10069038	0.19956961	0.30861783	0.36004199	0.24538989	0.1963849	0.062327389	0.14628983
14307	143.06	0.43346393	0.066418266	0.14452946	-0.041228256	0.63991913	0.1199827	-0.12143919	0.63870453	0.16385776	-0.25922937	0.57887091	0.013962618	-0.17125932	0.633427	-0.17902382	-0.071139	0.65019427	-0.14961755	0.027319418	1.009745	-0.011615548	-0.059703396	1.0491837	0.19247665	-0.067601395	1.0513387	-0.19809119	0.043845718	0.84581317	-0.0093997917	0.028447353	0.96518671	-0.12694536	0.34612433	0.50766254	0.13380151	0.31115173	0.51280475	0.23622159	0.1564785	0.62261017	0.17799144	0.29530261	0.11087465	0.10828363	0.27596979	0.10066833	0.19960614	0.30842636	0.36003061	0.24544086	0.19636975	0.062301498	0.14630412
14308	143.07	0.43342804	0.066512115	0.14441949	-0.040871841	0.63992303	0.1199756	-0.12137938	0.63874457	0.16387143	-0.25941486	0.57896985	0.014020563	-0.17136104	0.63359625	-0.17891693	-0.07083326	0.65045343	-0.14965482	0.032306957	1.0072278	-0.011485041	-0.054005371	1.0480121	0.19259515	-0.061861904	1.0503276	-0.19797298	0.046547535	0.84319214	-0.0092379332	0.032829094	0.9627854	-0.12675114	0.34585782	0.50765628	0.13384006	0.31088483	0.51278741	0.23626053	0.15627847	0.62261719	0.17804611	0.29522491	0.11085615	0.10832156	0.27593677	0.1006392	0.19965463	0.30823413	0.36002734	0.24545035	0.1963463	0.062262634	0.14631886
14309	143.08	0.43338901	0.066629829	0.14432903	-0.040548126	0.63982996	0.11994378	-0.1213326	0.6387702	0.16382639	-0.25961481	0.57908691	0.014083036	-0.17145834	0.63378339	-0.17879761	-0.070631546	0.65059625	-0.14969141	0.037537048	1.0045264	-0.011356009	-0.048028343	1.046701	0.192717	-0.055835773	1.0492102	-0.19784633	0.049374817	0.84042853	-0.0090601835	0.037424801	0.96022864	-0.1265326	0.34557169	0.50764008	0.13382129	0.31060843	0.51277264	0.23624559	0.15606929	0.62261542	0.1780528	0.2951257	0.11083369	0.10836331	0.27589612	0.10060245	0.1997188	0.3080383	0.36003177	0.24541829	0.19631261	0.062208691	0.14633206
